<svg xmlns="http://www.w3.org/2000/svg" viewBox="0 0 1928.72 432.15"><defs><style>.cls-1{fill:#f89820;}</style></defs><g id="Layer_2" data-name="Layer 2"><g id="Layer_1-2" data-name="Layer 1"><path d="M31.94,124.61l42.59,184h6.83l51.1-179.74h33.65L216.8,308.62h6.82l43-184h32l-50.7,213H193.8L149.07,171,103.5,337.59H50.25L0,124.61Z"/><path d="M326.72,39.43h31.53V76.49H326.72Zm0,85.18h31.53v213H326.72Z"/><path d="M544.26,156.13s-47.29-6.8-74.54-6.8c-26.41,0-46,6.8-46,31.94,0,20,9.8,26,52,32.37,56.22,8.94,76.67,20.44,76.67,61.76,0,49.84-31.53,66.45-83.06,66.45-27.26,0-75-8.1-75-8.1L396,306.07s48.56,7.24,70.28,7.24c34.93,0,53.67-7.67,53.67-36.63,0-22.15-11.08-27.26-53.67-34.08-52-8.09-75-18.32-75-60,0-46.86,37.91-62.19,76.68-62.19,31.94,0,77.09,8.09,77.09,8.09Z"/><path d="M745.32,309.05l.85,26s-48.13,6.83-82.64,6.83c-63.88,0-84.75-37.05-84.75-109.47,0-80.92,35.36-112,89.44-112,56.23,0,85.61,29.82,85.61,99.67l-1.7,24.7h-141c.43,44.72,14.06,68.15,56.23,68.15C699.32,312.88,745.32,309.05,745.32,309.05Zm-23.43-90.3c0-51.11-16.61-69.85-53.67-69.85-36.63,0-57.08,20-57.08,69.85Z"/><path class="cls-1" d="M1364.91,124.61h31.94v14.92s32-19.17,63.47-19.17c53.67,0,77.09,31.94,77.09,108.19,0,83.48-26.83,113.3-92.85,113.3a276.09,276.09,0,0,1-47.71-4.69v95h-31.94Zm31.94,41.75V308.62a266.3,266.3,0,0,0,46,4.69c46.85,0,62.18-23.43,62.18-85.62,0-57.49-18.3-77.93-49-77.93C1428,149.76,1396.85,166.36,1396.85,166.36Z"/><path class="cls-1" d="M1723.66,294.57c.85,13.62,11.07,17.89,24.7,19.6l-1.28,27.68c-25.56,0-39.19-4.69-50.26-16.2,0,0-38.33,16.2-78.8,16.2-37.06,0-57.92-23.43-57.92-65.17,0-40.89,20.86-59.21,64.74-63l67.3-6.39V189.78c0-26.83-13.64-38.75-37.06-38.75-31.09,0-81.35,5.53-81.35,5.53l-1.29-27.68s51.12-8.52,83.91-8.52c45.16,0,67.31,21.3,67.31,69.42Zm-94.56-56.22c-26,2.55-36.63,15.76-36.63,37.48,0,24.7,11.07,38.34,30.24,38.34,32.37,0,69.43-12.78,69.43-12.78V233.23Z"/><path class="cls-1" d="M1775.81,124.61l53.24,182.3h14.49l53.23-182.3h32l-88.6,307.54h-31.94l27.26-94.56h-31.09l-60.48-213Z"/><path class="cls-1" d="M908.65,232.37c27.76-28.84,74.78-85.49,97.22-105.75s54.84-51.75,74.79-72.69c42.74-44.86,2.16-60.85-24.58-51.25s-52.37,41.65-74.78,70.53-28.84,36.3-45.94,49.11c-28.85,24.59-40.61,42.74-64.1,66.27l-31,31c-13.89,13.89-36.3,33.13-32,44.86s26.71,26.68,50.2,24.57,60.89,5.35,78,10.69,40.57,15,58.73,19.23,26.76,8.59,33.18,13.9,36.29,20.29,29.92-13.9c-5.37-27.78-39.06-27.72-73.74-35.25-24.6-5.34-45.93-11.74-59.83-15s-38.5-6.39-28.87-20.32S908.65,232.37,908.65,232.37Z"/><path d="M1091.31,72.12c-7.44,8.56-26.7,32.05,12.81,48.07s55.61,23.53,78.07,34.23,38.43,19.15,52.3,23.45,26.71,8.56,4.25,31-30.93,32-47,45.9A429.21,429.21,0,0,1,1149,288c-12.78,8.52-35.23,28.84-49.13,40.6s-18.15,17-32,27.73-26.72,22.47-18.16,33.16,22.41,12.85,44.83-14.95,34.21-31,53.44-48.08,26.72-23.52,43.83-36.33,33.12-21.34,49.14-36.32,38.47-31,53.42-43.81,27.79-17.1,28.84-31-12.85-17.1-24.57-19.23S1274,148,1260.14,140.51s-22.45-10.68-33.12-12.84-19.21-5.35-33.11-20.32-19.26-19.21-39.54-30.93-24.56-18.19-40.61-16.06S1091.31,72.12,1091.31,72.12Z"/></g></g></svg>